<?xml version="1.0" encoding="UTF-8" standalone="no"?>
<!-- Created with Inkscape (http://www.inkscape.org/) -->
<svg id="svg2" xmlns:rdf="http://www.w3.org/1999/02/22-rdf-syntax-ns#" xmlns="http://www.w3.org/2000/svg" height="73.15" width="302.24" version="1.1" xmlns:cc="http://creativecommons.org/ns#" xmlns:dc="http://purl.org/dc/elements/1.1/">
 <defs id="defs4"></defs>
 <metadata id="metadata7">
  <rdf:RDF>
   <cc:Work rdf:about="">
    <dc:format>image/svg+xml</dc:format>
    <dc:type rdf:resource="http://purl.org/dc/dcmitype/StillImage"/>
    <dc:title/>
   </cc:Work>
  </rdf:RDF>
 </metadata>
 <g id="layer1" transform="translate(-27.01881,-155.21048)">
  <g id="g4833" transform="matrix(0.5,0,0,0.5,18.509405,109.18012)">
   <g id="g3222" transform="matrix(1.25,0,0,-1.25,185.97306,154.60973)">
    <path id="path3224" fill-rule="nonzero" fill="#31316d" d="m0,0,0,25.543,15.996,0,0-4.686-11.022,0,0-5.834,9.978,0,0-4.431-9.978,0,0-5.908,11.022,0v-4.684h-15.996z"/>
   </g>
   <g id="g3226" transform="matrix(1.25,0,0,-1.25,224.47406,141.0111)">
    <path id="path3228" fill-rule="nonzero" fill="#31316d" d="M0,0c-0.072,1.768-1.225,3.496-3.963,3.496-2.486,0-3.853-1.873-3.962-3.496h7.925zm4.468-5.797c-0.9-3.064-3.711-5.623-8.07-5.623-4.863,0-9.151,3.496-9.151,9.475,0,5.656,4.18,9.33,8.72,9.33,5.474,0,8.754-3.492,8.754-9.186,0-0.683-0.073-1.404-0.073-1.476h-12.681c0.108-2.342,2.088-4.034,4.468-4.034,2.232,0,3.457,1.116,4.035,2.702l3.998-1.188z"/>
   </g>
   <g id="g3230" transform="matrix(1.25,0,0,-1.25,237.30606,147.31485)">
    <path id="path3232" fill-rule="nonzero" fill="#31316d" d="m0,0c0.108-1.404,1.152-2.699,3.242-2.699,1.584,0,2.344,0.826,2.344,1.763,0,0.791-0.542,1.44-1.912,1.729l-2.341,0.541c-3.423,0.756-4.971,2.809-4.971,5.295,0,3.172,2.809,5.799,6.629,5.799,5.042,0,6.737-3.203,6.951-5.116l-3.997-0.9c-0.144,1.045-0.901,2.379-2.92,2.379-1.26,0-2.268-0.756-2.268-1.766,0-0.863,0.648-1.406,1.62-1.584l2.522-0.541c3.496-0.72,5.26-2.845,5.26-5.439,0-2.883-2.232-5.838-6.881-5.838-5.332,0-7.169,3.459-7.383,5.479l4.105,0.898z"/>
   </g>
   <g id="g3234" transform="matrix(1.25,0,0,-1.25,261.17081,132.45398)">
    <path id="path3236" fill-rule="nonzero" fill="#31316d" d="m0,0,3.567,0,0-4.25-3.567,0,0-7.422c0-1.547,0.721-2.053,2.09-2.053,0.576,0,1.224,0.073,1.477,0.145v-3.965c-0.433-0.18-1.296-0.432-2.702-0.432-3.457,0-5.62,2.053-5.62,5.477v8.25h-3.206v4.25h0.899c1.875,0,2.739,1.225,2.739,2.811v2.484h4.323v-5.295z"/>
   </g>
   <path id="path3238" fill-rule="nonzero" fill="#31316d" d="m269.68,132.45,5.9875,0,0,22.156-5.9875,0,0-22.156zm2.9712-10.989c2.0725,0,3.6912,1.6675,3.6912,3.7375,0,1.9825-1.6188,3.6475-3.6912,3.6475-2.025,0-3.6925-1.665-3.6925-3.6475,0-2.07,1.6675-3.7375,3.6925-3.7375"/>
   <path id="path3240" fill-rule="nonzero" fill="#31316d" d="m291.56,122.68,6.305,0,0,31.929-6.305,0,0-31.929z"/>
   <g id="g3242" transform="matrix(1.25,0,0,-1.25,309.66569,154.60973)">
    <path id="path3244" fill-rule="nonzero" fill="#31316d" d="m0,0-4.791,0,0,17.725,4.645,0,0-2.198c1.082,1.838,3.208,2.666,5.117,2.666,4.394,0,6.412-3.132,6.412-7.025v-11.168h-4.79v10.34c0,1.98-0.974,3.531-3.279,3.531-2.089,0-3.314-1.623-3.314-3.676v-10.195z"/>
   </g>
   <g id="g3246" transform="matrix(1.25,0,0,-1.25,336.09643,130.02235)">
    <path id="path3248" fill-rule="nonzero" fill="#31316d" d="m0,0,0-1.945,3.997,0,0-4.106-3.997,0,0-13.619-4.826,0,0,13.619-2.956,0,0,4.106,2.956,0,0,2.017c0,4,2.521,6.594,6.446,6.594,1.01,0,1.982-0.182,2.377-0.361v-4.035c-0.251,0.072-0.719,0.179-1.512,0.179-1.08,0-2.485-0.469-2.485-2.449"/>
   </g>
   <g id="g3250" transform="matrix(1.25,0,0,-1.25,359.01756,143.5331)">
    <path id="path3252" fill-rule="nonzero" fill="#31316d" d="m0,0c0,3.352-2.162,5.047-4.506,5.047-2.339,0-4.501-1.695-4.501-5.047,0-3.313,2.162-5.041,4.501-5.041,2.344,0,4.506,1.693,4.506,5.041m4.79,0c0-5.437-3.999-9.402-9.296-9.402-5.294,0-9.294,3.965-9.294,9.402,0,5.479,4,9.402,9.294,9.402,5.297,0,9.296-3.923,9.296-9.402"/>
   </g>
   <g id="g3254" transform="matrix(1.25,0,0,-1.25,375.99018,132.45398)">
    <path id="path3256" fill-rule="nonzero" fill="#31316d" d="m0,0,3.567,0,0-4.25-3.567,0,0-7.422c0-1.547,0.721-2.053,2.09-2.053,0.576,0,1.224,0.073,1.477,0.145v-3.965c-0.431-0.18-1.296-0.432-2.702-0.432-3.459,0-5.619,2.053-5.619,5.477v8.25h-3.207v4.25h0.901c1.874,0,2.738,1.225,2.738,2.811v2.484h4.322v-5.295z"/>
   </g>
   <g id="g3258" transform="matrix(1.25,0,0,-1.25,398.55244,141.0111)">
    <path id="path3260" fill-rule="nonzero" fill="#31316d" d="M0,0c-0.074,1.768-1.227,3.496-3.964,3.496-2.485,0-3.854-1.873-3.963-3.496h7.927zm4.465-5.797c-0.9-3.064-3.71-5.623-8.069-5.623-4.863,0-9.152,3.496-9.152,9.475,0,5.656,4.181,9.33,8.72,9.33,5.475,0,8.754-3.492,8.754-9.186,0-0.683-0.072-1.404-0.072-1.476h-12.681c0.108-2.342,2.09-4.034,4.467-4.034,2.235,0,3.46,1.116,4.036,2.702l3.997-1.188z"/>
   </g>
   <g id="g3262" transform="matrix(1.25,0,0,-1.25,414.12981,154.60973)">
    <path id="path3264" fill-rule="nonzero" fill="#31316d" d="m0,0-4.79,0,0,26.082,4.79,0,0-9.834c1.152,1.369,3.098,1.945,4.79,1.945,4.504,0,6.594-3.132,6.594-7.025v-11.168h-4.792v10.34c0,1.98-0.972,3.531-3.278,3.531-2.017,0-3.206-1.514-3.314-3.459v-10.412z"/>
   </g>
   <g id="g3266" transform="matrix(1.25,0,0,-1.25,439.38981,154.60973)">
    <path id="path3268" fill-rule="nonzero" fill="#31316d" d="m0,0-4.791,0,0,17.725,4.648,0,0-2.198c1.08,1.838,3.206,2.666,5.116,2.666,4.395,0,6.411-3.132,6.411-7.025v-11.168h-4.79v10.34c0,1.98-0.975,3.531-3.28,3.531-2.089,0-3.314-1.623-3.314-3.676v-10.195z"/>
   </g>
   <g id="g3270" transform="matrix(1.25,0,0,-1.25,474.24094,143.5331)">
    <path id="path3272" fill-rule="nonzero" fill="#31316d" d="m0,0c0,3.352-2.16,5.047-4.501,5.047s-4.503-1.695-4.503-5.047c0-3.313,2.162-5.041,4.503-5.041s4.501,1.693,4.501,5.041m4.793,0c0-5.437-3.999-9.402-9.294-9.402-5.296,0-9.294,3.965-9.294,9.402,0,5.479,3.998,9.402,9.294,9.402,5.295,0,9.294-3.923,9.294-9.402"/>
   </g>
   <path id="path3274" fill-rule="nonzero" fill="#31316d" d="m483.92,122.01,5.9888,0,0,32.602-5.9888,0,0-32.602z"/>
   <g id="g3276" transform="matrix(1.25,0,0,-1.25,510.84981,143.5331)">
    <path id="path3278" fill-rule="nonzero" fill="#31316d" d="m0,0c0,3.352-2.162,5.047-4.501,5.047-2.343,0-4.506-1.695-4.506-5.047,0-3.313,2.163-5.041,4.506-5.041,2.339,0,4.501,1.693,4.501,5.041m4.793,0c0-5.437-4-9.402-9.294-9.402-5.297,0-9.296,3.965-9.296,9.402,0,5.479,3.999,9.402,9.296,9.402,5.294,0,9.294-3.923,9.294-9.402"/>
   </g>
   <g id="g3280" transform="matrix(1.25,0,0,-1.25,536.10981,143.5331)">
    <path id="path3282" fill-rule="nonzero" fill="#31316d" d="m0,0c0,3.352-2.16,5.047-4.501,5.047s-4.504-1.695-4.504-5.047c0-3.313,2.163-5.041,4.504-5.041s4.501,1.693,4.501,5.041m4.793,0c0-5.437-4-9.402-9.294-9.402-5.297,0-9.296,3.965-9.296,9.402,0,5.479,3.999,9.402,9.296,9.402,5.294,0,9.294-3.923,9.294-9.402"/>
   </g>
   <g id="g3284" transform="matrix(1.25,0,0,-1.25,560.78756,142.85685)">
    <path id="path3286" fill-rule="nonzero" fill="#31316d" d="m0,0c0,2.738-1.873,4.469-4.18,4.469-2.377,0-4.251-1.731-4.251-4.469,0-2.773,1.765-4.502,4.251-4.502,2.45,0,4.18,1.766,4.18,4.502m-8.935-9.223c0.324-1.945,1.874-3.349,4.143-3.349,3.025,0,4.72,1.513,4.72,4.935v1.295c-0.721-1.152-2.379-2.267-4.935-2.267-4.721,0-8.25,3.638-8.25,8.609,0,4.684,3.385,8.646,8.25,8.646,2.809,0,4.431-1.224,5.041-2.412v2.088h4.612v-15.816c0-4.861-2.63-9.293-9.293-9.293-4.864,0-8.106,3.027-8.61,6.412l4.322,1.152z"/>
   </g>
   <path id="path3288" fill-rule="nonzero" fill="#31316d" d="m571.64,132.45,5.9875,0,0,22.156-5.9875,0,0-22.156zm2.9712-10.989c2.0738,0,3.695,1.6675,3.695,3.7375,0,1.9825-1.6212,3.6475-3.695,3.6475-2.025,0-3.6912-1.665-3.6912-3.6475,0-2.07,1.6662-3.7375,3.6912-3.7375"/>
   <g id="g3290" transform="matrix(1.25,0,0,-1.25,595.36881,145.64735)">
    <path id="path3292" fill-rule="nonzero" fill="#31316d" d="M0,0,0,0.793-4,0.18c-1.225-0.18-2.198-0.866-2.198-2.235,0-1.043,0.757-2.054,2.304-2.054,2.018,0,3.894,0.974,3.894,4.109m-5.694,3.025,4.361,0.649c1.008,0.144,1.333,0.648,1.333,1.26,0,1.261-0.974,2.308-2.992,2.308-2.088,0-3.242-1.334-3.385-2.885l-4.252,0.903c0.289,2.773,2.847,5.834,7.601,5.834,5.62,0,7.71-3.17,7.71-6.737v-8.716c0-0.936,0.108-2.198,0.216-2.811h-4.394c-0.108,0.469-0.181,1.441-0.181,2.125-0.901-1.402-2.594-2.629-5.224-2.629-3.783,0-6.087,2.557-6.087,5.332,0,3.17,2.341,4.936,5.294,5.367"/>
   </g>
   <g id="g3294" transform="matrix(1.25,0,0,-1.25,196.15006,194.69273)">
    <path id="path3296" fill-rule="nonzero" fill="#31316d" d="m0,0-3.168-3.496,0-7.096-4.974,0,0,25.541,4.974,0,0-11.564,10.23,11.564,6.52,0-10.123-11.131,10.195-14.41-6.231,0l-7.423,10.592z"/>
   </g>
   <g id="g3298" transform="matrix(1.25,0,0,-1.25,229.65468,196.85348)">
    <path id="path3300" fill-rule="nonzero" fill="#31316d" d="M0,0c0,3.35-2.163,5.043-4.504,5.043s-4.503-1.693-4.503-5.043c0-3.314,2.162-5.043,4.503-5.043s4.504,1.691,4.504,5.043m4.79,0c0-5.441-3.999-9.402-9.294-9.402-5.296,0-9.296,3.961-9.296,9.402,0,5.475,4,9.402,9.296,9.402,5.295,0,9.294-3.927,9.294-9.402"/>
   </g>
   <path id="path3302" fill-rule="nonzero" fill="#31316d" d="m239.33,175.33,5.9888,0,0,32.605-5.9888,0,0-32.605z"/>
   <path id="path3304" fill-rule="nonzero" fill="#31316d" d="m250.68,175.33,5.9888,0,0,32.605-5.9888,0,0-32.605z"/>
   <g id="g3306" transform="matrix(1.25,0,0,-1.25,276.30144,194.33148)">
    <path id="path3308" fill-rule="nonzero" fill="#31316d" d="M0,0c-0.072,1.766-1.225,3.494-3.963,3.494-2.486,0-3.855-1.873-3.962-3.494h7.925zm4.468-5.801c-0.9-3.06-3.711-5.619-8.07-5.619-4.863,0-9.149,3.494-9.149,9.475,0,5.656,4.178,9.33,8.718,9.33,5.474,0,8.754-3.496,8.754-9.188,0-0.683-0.075-1.404-0.075-1.476h-12.679c0.108-2.342,2.091-4.035,4.468-4.035,2.232,0,3.457,1.117,4.033,2.703l4-1.19z"/>
   </g>
   <g id="g3310" transform="matrix(1.25,0,0,-1.25,295.75456,203.11323)">
    <path id="path3312" fill-rule="nonzero" fill="#31316d" d="m0,0c2.449,0,4.358,1.873,4.358,5.08,0,3.17-1.909,4.936-4.358,4.936-2.45,0-4.396-1.803-4.396-4.973s1.874-5.043,4.396-5.043m9.004-0.648c0-1.188,0.072-2.485,0.147-3.207h-4.576c-0.072,0.359-0.18,1.226-0.18,2.054-0.793-1.404-2.594-2.488-4.971-2.488-5.044,0-8.646,3.965-8.646,9.332,0,5.187,3.493,9.258,8.501,9.258,3.062,0,4.503-1.26,5.007-2.196v10.124h4.718v-22.877z"/>
   </g>
   <g id="g3314" transform="matrix(1.25,0,0,-1.25,317.14131,176.4091)">
    <path id="path3316" fill-rule="nonzero" fill="#31316d" d="M0,0,2.521-2.703,5.043,0,8.826,0,4.898-5.334h-4.79l-3.962,5.334h3.854zm-4.971-25.219,0,4.215,8.394,9.367-8.177,0,0,4.141,14.301,0,0-3.996-8.646-9.547,8.79,0,0-4.18-14.662,0z"/>
   </g>
   <g id="g3318" transform="matrix(1.25,0,0,-1.25,58.27656,112.06098)">
    <path id="path3320" fill-rule="nonzero" fill="#41b6e6" d="M0,0,17.01-17.008,17.01,0,0,0z"/>
   </g>
   <g id="g3322" transform="matrix(1.25,0,0,-1.25,79.53631,154.5756)">
    <path id="path3324" fill-rule="nonzero" fill="#41b6e6" d="m0,0,17.003,17.002,0-17.006,17.008,0,0,0.002,17.008,17.006-17.008,0-0.002,0-17.004,0-17.003,0-0.005,0-17.003,0-17.008,0,0-17.008,17.006,17.006,0-17.006h17.008v0.004z"/>
   </g>
   <g id="g3326" transform="matrix(1.25,0,0,-1.25,58.27656,218.35973)">
    <path id="path3328" fill-rule="nonzero" fill="#41b6e6" d="M0,0,17.008,0,0,17.008,0,0z"/>
   </g>
   <g id="g3330" transform="matrix(1.25,0,0,-1.25,100.78994,112.06098)">
    <path id="path3332" fill-rule="nonzero" fill="#41b6e6" d="M0,0,17.008-17.008,17.008,0,0,0z"/>
   </g>
   <g id="g3334" transform="matrix(1.25,0,0,-1.25,100.78994,218.35973)">
    <path id="path3336" fill-rule="nonzero" fill="#41b6e6" d="M0,0,17.008,0,0,17.008,0,0z"/>
   </g>
   <g id="g3338" transform="matrix(1.25,0,0,-1.25,122.04981,175.84023)">
    <path id="path3340" fill-rule="nonzero" fill="#41b6e6" d="m0,0-17.008,17.008,0-17.008-17.003,0-17.008,17.008,0-17.008-17.005,0,0-17.008,17.005,17.006,0-17.006,17.008,0,0,0.002,17.003,17.004,0-17.006,17.008,0,0,0.002l17.006,17.006h-17.006z"/>
   </g>
   <g id="g3342" transform="matrix(1.25,0,0,-1.25,58.278935,154.58048)">
    <path id="path3344" fill-rule="nonzero" fill="#31316d" d="M0,0,0,17.008-17.008,0,0,0z"/>
   </g>
   <g id="g3346" transform="matrix(1.25,0,0,-1.25,58.278935,175.84023)">
    <path id="path3348" fill-rule="nonzero" fill="#31316d" d="m0,0-17.008-17.008,17.006,0,17.008-17.008,0,17.008h-17.006v17.008z"/>
   </g>
   <g id="g3350" transform="matrix(1.25,0,0,-1.25,58.27656,112.06098)">
    <path id="path3352" fill-rule="nonzero" fill="#31316d" d="m0,0,0-17.008,0.002,0,17.008,0l-17.01,17.008z"/>
   </g>
   <g id="g3354" transform="matrix(1.25,0,0,-1.25,58.27656,154.58048)">
    <path id="path3356" fill-rule="nonzero" fill="#31316d" d="M0,0,17.008-17.008,17.008,0,0,0z"/>
   </g>
   <g id="g3358" transform="matrix(1.25,0,0,-1.25,100.79244,154.58048)">
    <path id="path3360" fill-rule="nonzero" fill="#31316d" d="M0,0,0,17.008-17.008,0,0,0z"/>
   </g>
   <g id="g3362" transform="matrix(1.25,0,0,-1.25,100.79244,175.84023)">
    <path id="path3364" fill-rule="nonzero" fill="#31316d" d="M0,0-17.008-17.008,0-17.008,0,0z"/>
   </g>
   <g id="g3366" transform="matrix(1.25,0,0,-1.25,122.04981,133.32073)">
    <path id="path3368" fill-rule="nonzero" fill="#31316d" d="M0,0-17.008,17.008-17.008,0-17.006,0,0,0z"/>
   </g>
   <g id="g3370" transform="matrix(1.25,0,0,-1.25,122.04981,154.58048)">
    <path id="path3372" fill-rule="nonzero" fill="#31316d" d="M0,0-17.008,0,0-17.008,0,0z"/>
   </g>
   <g id="g3374" transform="matrix(1.25,0,0,-1.25,122.04981,218.35973)">
    <path id="path3376" fill-rule="nonzero" fill="#31316d" d="m0,0,0,17.008-17.008,0l17.008-17.008z"/>
   </g>
   <g id="g3378" transform="matrix(1.25,0,0,-1.25,122.04731,154.58048)">
    <path id="path3380" fill-rule="nonzero" fill="#31316d" d="m0,0,17.01,0,0,17.008l-17.01-17.008z"/>
   </g>
   <g id="g3382" transform="matrix(1.25,0,0,-1.25,122.04731,197.09998)">
    <path id="path3384" fill-rule="nonzero" fill="#31316d" d="M0,0,17.01,0,17.008,17.008,0,0z"/>
   </g>
  </g>
 </g>
</svg>
